<svg width="663" height="882" viewBox="0 0 663 882" fill="none" xmlns="http://www.w3.org/2000/svg">
<path d="M551.906 442.645C612.119 443.002 661.948 394.229 662.635 333.708C662.979 273.198 613.852 223.393 553.639 223.061C493.082 222.706 443.253 271.809 442.91 331.987C442.21 392.496 491.363 442.302 551.906 442.645Z" fill="#027DFD"/>
<path d="M332.181 440.912C271.635 440.58 222.483 390.775 223.184 330.266C223.529 270.078 273.356 220.974 333.912 221.329C394.124 222.017 443.941 172.912 444.643 112.391C444.987 52.226 395.857 2.41977 335.288 1.73277C275.087 1.38877 176.129 0.701817 115.562 0.00181726C55.3615 -0.344183 5.53244 48.762 5.18844 109.284C4.48944 169.448 3.79804 268.356 3.45504 328.866C2.75604 389.054 2.06757 487.954 1.72457 548.118C1.38057 608.639 0.334911 707.537 0.00191143 767.726C-0.353089 828.223 48.7873 878.039 108.987 878.372C169.555 879.06 219.373 829.956 219.728 769.436C220.06 709.27 269.902 660.165 330.446 660.52C391.003 661.208 440.833 612.104 441.176 551.584C441.521 491.063 392.394 441.613 332.181 440.912Z" fill="#027DFD"/>
<path d="M270.936 769.791C270.936 802.305 296.888 828.58 329.071 828.936C361.254 829.268 387.894 802.993 388.239 770.834C388.583 738.676 362.287 712.046 330.104 711.69C297.932 711.69 271.28 737.63 270.936 769.791Z" fill="#027DFD"/>
<path d="M548.441 881.838C609.009 882.193 658.828 833.42 659.183 772.899C659.515 712.379 610.73 662.586 550.175 662.253C489.63 661.898 439.788 710.648 439.456 771.168C439.101 831.687 488.24 881.48 548.441 881.838Z" fill="#027DFD"/>
</svg>
